<svg width="47" height="60" viewBox="0 0 47 60" fill="none" xmlns="http://www.w3.org/2000/svg">
<circle cx="26.1416" cy="38.4551" r="18.7491" transform="rotate(6.13028 26.1416 38.4551)" fill="#F9F9F9"/>
<circle cx="28.5952" cy="38.7193" r="13.075" transform="rotate(6.13028 28.5952 38.7193)" fill="#110F0D"/>
<path opacity="0.5" d="M6.93482 13.7936C6.19765 14.6719 5.22531 17.119 4.50359 19.1777C4.31389 19.7188 4.96923 20.1102 5.3631 19.6935C6.90643 18.0605 8.81346 15.9998 9.71379 14.8859C11.2849 12.9421 14.8025 11.1031 17.3326 10.0966C19.8627 9.09004 27.2706 8.92694 28.3588 8.34749C29.447 7.76804 29.8769 7.74357 29.93 6.40372C29.983 5.06388 29.4539 4.10217 28.1658 3.44243C26.8776 2.78268 23.3886 2.852 22.3766 3.25461C21.3645 3.65723 17.1913 4.58485 14.2803 6.47554C11.9515 7.9881 8.41299 11.9845 6.93482 13.7936Z" fill="#480B38"/>
</svg>
