<svg width="50" height="58" viewBox="0 0 50 58" fill="none" xmlns="http://www.w3.org/2000/svg">
<circle cx="21.1104" cy="36.5933" r="18.7491" transform="rotate(6.13028 21.1104 36.5933)" fill="#F9F9F9"/>
<circle cx="19.1831" cy="38.3706" r="13.075" transform="rotate(6.13028 19.1831 38.3706)" fill="#110F0D"/>
<path opacity="0.5" d="M42.8879 15.3976C43.5211 16.3536 44.2108 18.8948 44.6954 21.0219C44.8228 21.581 44.1274 21.8958 43.7831 21.4373C42.4341 19.6404 40.7721 17.3775 40.0033 16.169C38.6618 14.0603 35.3744 11.8357 32.9742 10.5498C30.574 9.26394 23.2319 8.26514 22.2161 7.56649C21.2003 6.86783 20.776 6.79496 20.8746 5.4577C20.9732 4.12043 21.6076 3.22465 22.962 2.71462C24.3164 2.2046 27.7753 2.66757 28.7354 3.18192C29.6955 3.69627 33.7372 5.08933 36.416 7.29673C38.559 9.06265 41.6235 13.4331 42.8879 15.3976Z" fill="#480B38"/>
</svg>
