<svg width="38" height="17" viewBox="0 0 38 17" fill="none" xmlns="http://www.w3.org/2000/svg">
<path d="M0.814606 10.604C-0.284243 14.316 5.38486 15.3006 12.157 15.6231C12.157 15.6231 24.6912 16.6161 30.3585 15.8558C36.0258 15.0956 37.2946 12.0141 36.9962 9.24771C36.5808 5.39796 27.4087 1.96759 21.0949 1.18784C12.0944 0.0762918 2.18817 5.96391 0.814606 10.604Z" fill="#480B38"/>
<path d="M0.814606 10.604C-0.284243 14.316 5.38486 15.3006 12.157 15.6231C12.157 15.6231 24.6912 16.6161 30.3585 15.8558C36.0258 15.0956 37.2946 12.0141 36.9962 9.24771C36.5808 5.39796 27.4087 1.96759 21.0949 1.18784C12.0944 0.0762918 2.18817 5.96391 0.814606 10.604Z" stroke="black" stroke-width="0.26493"/>
<path d="M0.814606 10.604C-0.284243 14.316 5.38486 15.3006 12.157 15.6231C12.157 15.6231 24.6912 16.6161 30.3585 15.8558C36.0258 15.0956 37.2946 12.0141 36.9962 9.24771C36.5808 5.39796 27.4087 1.96759 21.0949 1.18784C12.0944 0.0762918 2.18817 5.96391 0.814606 10.604Z" stroke="#480B38" stroke-width="0.26493"/>
</svg>
