<svg width="24" height="32" viewBox="0 0 24 32" fill="none" xmlns="http://www.w3.org/2000/svg">
<path d="M0.769784 5.08332C0.192747 7.23685 0.529352 17.6456 0.769784 22.5808C1.30723 25.8057 2.26919 29.493 4.80779 30.6565C9.87287 32.0025 15.7941 31.665 18.486 30.3191C23.3015 27.9113 23.6512 26.6186 23.6512 23.9267V10.4671C23.6512 3.73736 22.2813 1.40358 19.6133 1.04545C16.6017 0.641201 5.76691 0.641077 4.35368 1.11216C3.07679 1.53779 1.49108 2.39141 0.769784 5.08332Z" fill="#480B38"/>
<path d="M9.06889 24.1958C7.37117 24.1958 5.0609 25.6586 4.35352 26.5512C4.73038 28.0587 7.17999 29.2206 8.12215 29.3777C10.1642 29.718 11.8095 29.6919 13.304 29.5796C15.0377 29.4494 16.7079 29.1055 18.4859 28.4355C19.7548 27.9574 21.1297 27.1523 20.9529 26.8735C20.6134 26.338 19.2552 25.4603 18.6186 25.0884C18.2649 25.014 17.3453 24.9099 16.4964 25.0884C15.4353 25.3115 13.5254 25.9809 12.8888 25.7578C12.2521 25.5346 11.191 24.1958 9.06889 24.1958Z" fill="#FD86B0"/>
</svg>
