<svg width="24" height="22" viewBox="0 0 24 22" fill="none" xmlns="http://www.w3.org/2000/svg">
<path d="M12.2379 12.7417C12.9106 12.9099 14.256 12.7417 14.256 10.7237C14.256 9.46242 13.247 8.64239 11.7335 8.70542C10.2199 8.76846 8.20181 9.20944 8.20181 11.7327C8.20181 15.7688 11.2285 16.2731 12.7422 16.2731C14.256 16.2731 18.2917 14.76 18.2917 10.7237C18.2917 6.68736 15.265 4.66993 12.2379 4.66993C9.21084 4.66993 4.6707 7.19201 4.6707 12.2372C4.6707 17.2823 8.70542 20.3087 12.7422 20.3087C16.7791 20.3087 22.3287 15.7689 22.3287 10.7237C22.3287 5.67846 17.2827 1.13721 12.7422 1.13721C8.20181 1.13721 1.1377 3.66069 1.1377 12.7417" stroke="#480B38" stroke-width="1.8956" stroke-linecap="round"/>
</svg>
