<svg width="24" height="22" viewBox="0 0 24 22" fill="none" xmlns="http://www.w3.org/2000/svg">
<path d="M11.723 12.7417C11.0503 12.9099 9.70495 12.7417 9.70495 10.7237C9.70495 9.46242 10.7139 8.64239 12.2274 8.70542C13.741 8.76846 15.7591 9.20944 15.7591 11.7327C15.7591 15.7688 12.7325 16.2731 11.2187 16.2731C9.70495 16.2731 5.66925 14.76 5.66925 10.7237C5.66925 6.68736 8.69592 4.66993 11.723 4.66993C14.7501 4.66993 19.2902 7.19201 19.2902 12.2372C19.2902 17.2823 15.2555 20.3087 11.2187 20.3087C7.18189 20.3087 1.63222 15.7689 1.63222 10.7237C1.63222 5.67846 6.67828 1.13721 11.2187 1.13721C15.7591 1.13721 22.8232 3.66069 22.8232 12.7417" stroke="#480B38" stroke-width="1.8956" stroke-linecap="round"/>
</svg>
