<svg width="33" height="35" viewBox="0 0 33 35" fill="none" xmlns="http://www.w3.org/2000/svg">
<path d="M13.678 4.61218C18.1676 3.62443 23.4932 4.55183 26.5009 8.36645C28.6337 11.0716 27.8013 15.829 27.1652 18.8167C26.2038 23.3321 23.7658 27.9763 20.0006 30.7798C18.361 32.0006 16.0945 31.4739 14.2593 31.1698C11.6736 30.7413 9.59697 29.5214 7.34441 28.2429C2.98514 25.7685 4.06773 20.0795 5.25055 16.108C5.93494 13.81 7.02358 12.0039 8.31964 10.069C9.29852 8.60767 9.64144 8.08777 11.0948 7.07541C12.068 6.39747 13.2367 5.63238 14.1025 4.85317" stroke="#480B38" stroke-width="3.11074" stroke-linecap="round"/>
<path d="M11.7478 6.20256C13.9384 6.08178 15.2004 6.14969 16.8411 7.39386C18.9629 9.00291 19.525 12.0908 18.0872 14.2916C16.888 16.1274 14.0117 17.9657 11.8042 18.1633C10.0254 18.3226 8.2743 16.8817 6.99373 15.8695C6.55707 15.5243 6.02987 15.3872 5.65724 14.9549C5.04503 14.2449 6.05217 15.3194 6.33998 15.4828C7.35912 16.0613 8.72521 16.8155 9.92652 16.8013C10.8058 16.7909 11.3233 15.5517 11.9079 15.0412C13.0068 14.0815 15.1974 13.6217 15.3773 11.8958C15.4494 11.2036 15.0118 10.5227 15.2823 9.89282C15.6026 9.14702 15.6197 8.85784 15.0841 8.23659C14.4963 7.55478 11.2785 9.50189 10.8546 10.2487C10.4657 10.9339 10.1867 12.4574 10.5906 13.1863C11.7979 15.3653 13.3438 14.5083 15.6345 13.5855C17.1063 12.9927 16.88 11.6808 16.4933 10.4242C16.2636 9.67789 15.8648 9.0644 15.1628 8.70229C14.6379 8.43149 12.7705 10.7406 12.4011 11.0954C11.8745 11.6013 11.1752 12.2601 11.0241 13.027C10.8836 13.7403 11.6287 13.8716 12.0032 14.2688C12.9749 15.2993 10.8099 15.2474 10.1513 14.8394C8.84105 14.0275 9.43832 13.2505 9.32581 12.063C9.30125 11.8038 9.30281 12.9006 9.31558 13.1799C9.3457 13.8392 9.84609 14.0159 10.1067 14.5334" stroke="#480B38" stroke-width="3.11074" stroke-linecap="round"/>
</svg>
