<svg width="30" height="30" viewBox="0 0 30 30" fill="none" xmlns="http://www.w3.org/2000/svg">
<path d="M18.7085 6.42513C17.582 5.78572 16.3563 5.5154 15.092 5.21441C13.5673 4.85147 12.201 5.63384 10.7614 6.03093C8.17164 6.74528 7.85076 6.67799 6.37916 8.75166C5.35343 10.197 4.03508 11.354 3.70409 13.1899C3.4647 14.5176 3.14696 15.8492 3.58094 17.143C3.8592 17.9726 4.66893 18.7343 5.12172 19.4833C5.9409 20.8385 6.90001 21.7942 8.19566 22.6938C11.2797 24.8352 16.4945 28.5694 20.5834 26.6377C22.6525 25.6603 23.4315 22.3343 24.4379 20.5612C25.4645 18.7526 25.1596 15.8209 24.6306 13.9032C24.087 11.9322 22.5651 10.6404 21.4375 9.03449C20.7083 7.99586 20.0127 6.32336 18.8577 5.66778" stroke="#480B38" stroke-width="3.11074" stroke-linecap="round"/>
<path d="M17.015 7.42835C16.5449 8.10531 15.5121 8.45416 15.5085 9.39563C15.5036 10.659 15.8355 11.829 16.6403 12.8136C17.3818 13.7209 18.2459 14.3019 19.2467 14.8699C20.4071 15.5286 20.0809 14.8003 21.0782 14.2255C21.4943 13.9857 22.4386 14.0367 22.9228 14.025C23.728 14.0056 21.4705 13.3254 20.77 12.9278C19.4652 12.1872 19.8379 10.0403 18.8092 8.9925C18.6548 8.83525 18.2787 7.41308 18.1657 7.48894C17.079 8.21791 17.4332 9.15924 18.0617 9.92482C18.3898 10.3245 19.5988 11.7222 19.3599 12.143C19.1084 12.5861 17.4567 12.1699 17.9529 12.4516C19.0317 13.0639 19.8558 14.093 21.0023 14.7438C22.0171 15.3198 23.1689 15.2493 24.244 15.461" stroke="#480B38" stroke-width="3.11074" stroke-linecap="round"/>
</svg>
