<svg width="193" height="170" viewBox="0 0 193 170" fill="none" xmlns="http://www.w3.org/2000/svg">
<path d="M158.691 62.158C162.573 68.0999 177.831 80.6185 183.128 85.9055C178.995 82.9244 154.168 83.4527 144.118 84.319C136.154 83.6006 115.637 94.4046 110.491 95.8763C105.345 97.348 75.8173 103.223 66.8792 104.943C57.941 106.664 53.3387 115.439 50.9131 117.931C48.4875 120.422 37.7775 124.164 33.0569 126.57C29.2803 128.496 27.0635 130.886 26.4272 131.841C21.3841 135.638 5.09201 145.969 4.42273 142.648C3.14518 136.309 13.1695 122.859 12.8547 114.149C12.5399 105.44 11.6507 77.1991 16.0754 58.8708C20.5002 40.5425 46.9018 25.5007 54.4274 21.8187C61.953 18.1366 83.1765 8.31336 105.487 13.0973C127.797 17.8813 142.687 29.2505 147.775 37.0049C152.863 44.7592 153.838 54.7306 158.691 62.158Z" fill="#B2B087" stroke="black" stroke-width="8.54592"/>
<path d="M147.601 47.4314C142.513 39.6771 129.736 23.721 107.426 18.937C85.1152 14.1531 66.9867 22.7384 59.4611 26.4204C51.9354 30.1025 25.5338 45.1442 21.1091 63.4725C16.6843 81.8008 19.3274 91.1088 19.6422 99.8183" stroke="white" stroke-width="4.24759"/>
<path d="M14.182 107.528C19.4453 101.621 37.1645 88.4916 39.1692 87.3675C41.5832 86.0138 55.5479 83.8944 59.2305 83.0608C74.3309 79.6424 97.4094 66.5608 104.462 64.68C111.515 62.7993 141.212 47.9475 156.16 57.0413" stroke="white" stroke-width="8.54592"/>
<path d="M158.691 62.158C162.573 68.0999 177.831 80.6185 183.128 85.9055C178.995 82.9244 154.168 83.4527 144.118 84.319C136.154 83.6006 115.637 94.4046 110.491 95.8763C105.345 97.348 75.8173 103.223 66.8792 104.943C57.941 106.664 53.3387 115.439 50.9131 117.931C48.4875 120.422 37.7775 124.164 33.0569 126.57C29.2803 128.496 27.0635 130.886 26.4272 131.841C21.3841 135.638 5.09201 145.969 4.42273 142.648C3.14518 136.309 13.1695 122.859 12.8547 114.149C12.5399 105.44 11.6507 77.1991 16.0754 58.8708C20.5002 40.5425 46.9018 25.5007 54.4274 21.8187C61.953 18.1366 83.1765 8.31336 105.487 13.0973C127.797 17.8813 142.687 29.2505 147.775 37.0049C152.863 44.7592 153.838 54.7306 158.691 62.158Z" stroke="black" stroke-width="8.54592"/>
<path d="M12.058 104.695C17.3213 98.7889 35.0405 85.6596 37.0452 84.5354C39.4591 83.1818 53.4238 81.0624 57.1065 80.2287C72.2069 76.8104 95.2854 63.7287 102.338 61.848C109.391 59.9672 139.088 45.1155 154.036 54.2092" stroke="black" stroke-width="8.54592"/>
<circle cx="32.562" cy="69.7314" r="3.53966" stroke="black" stroke-width="2.83172"/>
<circle cx="44.5971" cy="64.7758" r="3.53966" stroke="black" stroke-width="2.83172"/>
<circle cx="34.686" cy="57.6962" r="3.53966" stroke="black" stroke-width="2.83172"/>
</svg>
