<svg width="179" height="124" viewBox="0 0 179 124" fill="none" xmlns="http://www.w3.org/2000/svg">
<mask id="path-1-outside-1_95_629" maskUnits="userSpaceOnUse" x="-0.719727" y="8.68359" width="180" height="115" fill="black">
<rect fill="white" x="-0.719727" y="8.68359" width="180" height="115"/>
<path d="M86.124 18.6836C123.404 18.6836 153.626 38.3972 153.626 80.1865C153.626 82.5546 153.441 84.6806 153.086 86.5879C154.251 86.8197 154.958 87.0846 155.133 87.3906C157.544 91.6094 170.501 94.0207 169.597 99.1436C168.692 104.266 148.502 107.279 138.257 109.389C128.011 111.498 85.8225 114.211 83.1104 113.909C76.4808 113.173 72.2618 110.895 68.043 109.389C63.824 107.882 55.6875 104.267 53.5781 104.267C49.0577 104.266 37.3057 101.855 28.2656 100.047C19.2253 98.2388 9.28048 96.7326 9.28027 91.9111C9.28027 87.2212 13.95 85.6494 19.1836 85.2207C18.8139 83.6958 18.6221 82.0226 18.6221 80.1865C18.6222 38.3973 48.844 18.6837 86.124 18.6836Z"/>
</mask>
<path d="M86.124 18.6836C123.404 18.6836 153.626 38.3972 153.626 80.1865C153.626 82.5546 153.441 84.6806 153.086 86.5879C154.251 86.8197 154.958 87.0846 155.133 87.3906C157.544 91.6094 170.501 94.0207 169.597 99.1436C168.692 104.266 148.502 107.279 138.257 109.389C128.011 111.498 85.8225 114.211 83.1104 113.909C76.4808 113.173 72.2618 110.895 68.043 109.389C63.824 107.882 55.6875 104.267 53.5781 104.267C49.0577 104.266 37.3057 101.855 28.2656 100.047C19.2253 98.2388 9.28048 96.7326 9.28027 91.9111C9.28027 87.2212 13.95 85.6494 19.1836 85.2207C18.8139 83.6958 18.6221 82.0226 18.6221 80.1865C18.6222 38.3973 48.844 18.6837 86.124 18.6836Z" fill="#FDCE4A"/>
<path d="M86.124 18.6836L86.124 9.64319L86.124 9.64319L86.124 18.6836ZM153.626 80.1865L162.666 80.1865L162.666 80.1865L153.626 80.1865ZM153.086 86.5879L144.198 84.9329L142.564 93.7115L151.321 95.4544L153.086 86.5879ZM155.133 87.3906L147.284 91.8759L147.284 91.8761L155.133 87.3906ZM169.597 99.1436L178.499 100.716L178.5 100.715L169.597 99.1436ZM138.257 109.389L140.08 118.243L140.08 118.243L138.257 109.389ZM83.1104 113.909L82.112 122.894L82.112 122.894L83.1104 113.909ZM68.043 109.389L65.0023 117.902L65.0024 117.902L68.043 109.389ZM53.5781 104.267L53.5778 113.307H53.5781V104.267ZM28.2656 100.047L26.4927 108.912L26.4927 108.912L28.2656 100.047ZM9.28027 91.9111L0.239869 91.9111L0.239869 91.9115L9.28027 91.9111ZM19.1836 85.2207L19.9216 94.2309L30.4609 93.3676L27.9695 83.0907L19.1836 85.2207ZM18.6221 80.1865L9.58167 80.1865V80.1865H18.6221ZM86.124 18.6836V27.724C103.286 27.724 117.912 32.2692 128.077 40.7168C138.002 48.9656 144.586 61.6744 144.586 80.1865L153.626 80.1865L162.666 80.1865C162.666 56.9094 154.139 38.8667 139.633 26.8113C125.367 14.9548 106.243 9.64319 86.124 9.64319V18.6836ZM153.626 80.1865H144.586C144.586 82.0905 144.436 83.6543 144.198 84.9329L153.086 86.5879L161.974 88.2428C162.446 85.707 162.666 83.0187 162.666 80.1865H153.626ZM153.086 86.5879L151.321 95.4544C151.686 95.5269 151.573 95.5303 151.213 95.3906C151.03 95.3196 150.546 95.122 149.948 94.7301C149.418 94.3826 148.217 93.5089 147.284 91.8759L155.133 87.3906L162.982 82.9053C161.962 81.1193 160.607 80.0977 159.858 79.6073C159.042 79.0724 158.276 78.7367 157.748 78.5322C156.699 78.1257 155.651 77.8807 154.85 77.7214L153.086 86.5879ZM155.133 87.3906L147.284 91.8761C149.182 95.1988 152.374 97.1559 153.977 98.0926C155.777 99.1442 158.179 100.299 159.459 100.96C160.236 101.361 160.84 101.693 161.319 101.988C161.551 102.131 161.724 102.246 161.847 102.335C161.972 102.424 162.018 102.467 162.011 102.46C162.004 102.454 161.907 102.366 161.764 102.19C161.621 102.012 161.403 101.707 161.192 101.271C160.719 100.29 160.447 98.9712 160.694 97.5725L169.597 99.1436L178.5 100.715C179.52 94.9344 176.213 90.916 174.104 89.0185C172.021 87.1452 169.458 85.7746 167.757 84.8959C165.609 83.7865 164.376 83.2274 163.097 82.4803C161.621 81.6183 162.289 81.6919 162.982 82.9052L155.133 87.3906ZM169.597 99.1436L160.694 97.5712C161.077 95.4023 162.291 94.3101 162.455 94.1667C162.666 93.9821 162.581 94.1101 161.879 94.4433C160.493 95.1017 158.234 95.8542 155.177 96.6409C149.003 98.2294 142.067 99.3743 136.434 100.534L138.257 109.389L140.08 118.243C144.693 117.294 152.974 115.877 159.682 114.151C163.066 113.281 166.664 112.188 169.639 110.774C171.117 110.072 172.838 109.107 174.366 107.769C175.847 106.472 177.89 104.166 178.499 100.716L169.597 99.1436ZM138.257 109.389L136.434 100.534C132.011 101.445 119.57 102.617 107.188 103.537C101.155 103.986 95.3675 104.358 90.9388 104.6C88.7197 104.72 86.8755 104.806 85.5266 104.853C83.7918 104.913 83.6335 104.871 84.1087 104.924L83.1104 113.909L82.112 122.894C83.2652 123.022 85.0186 122.962 86.1501 122.923C87.6676 122.871 89.6443 122.778 91.9219 122.654C96.4865 122.405 102.395 122.024 108.528 121.569C120.481 120.68 134.257 119.442 140.08 118.243L138.257 109.389ZM83.1104 113.909L84.1087 104.924C78.8765 104.343 76.5336 102.821 71.0836 100.875L68.043 109.389L65.0024 117.902C67.99 118.969 74.0852 122.002 82.112 122.894L83.1104 113.909ZM68.043 109.389L71.0836 100.875C69.0882 100.162 66.4765 99.0664 63.2792 97.8303C61.8264 97.2687 60.2852 96.6941 58.9065 96.25C57.969 95.948 55.7443 95.2262 53.5781 95.2262V104.267V113.307C52.7806 113.307 52.3257 113.169 52.5614 113.225C52.6704 113.251 52.9262 113.319 53.3632 113.46C54.2352 113.741 55.3873 114.164 56.7597 114.695C59.2128 115.643 62.7788 117.108 65.0023 117.902L68.043 109.389ZM53.5781 104.267L53.5784 95.2262C52.2643 95.2262 49.007 94.794 44.2089 93.9356C39.6903 93.1272 34.6072 92.0958 30.0386 91.182L28.2656 100.047L26.4927 108.912C30.9642 109.806 36.2771 110.884 41.0246 111.734C45.4926 112.533 50.3714 113.307 53.5778 113.307L53.5781 104.267ZM28.2656 100.047L30.0386 91.182C25.076 90.1895 21.1617 89.5057 18.2414 88.5324C16.7927 88.0496 16.4311 87.751 16.5769 87.8661C16.9057 88.1256 18.3206 89.4983 18.3207 91.9107L9.28027 91.9111L0.239869 91.9115C0.240078 96.7347 2.89816 100.104 5.37416 102.058C7.66723 103.868 10.3569 104.963 12.5245 105.686C16.8366 107.123 22.4149 108.096 26.4927 108.912L28.2656 100.047ZM9.28027 91.9111H18.3207C18.3207 92.3193 18.1938 93.0571 17.711 93.8132C17.267 94.5085 16.7927 94.7957 16.7281 94.8323C16.6911 94.8533 16.9094 94.7287 17.5325 94.5795C18.1353 94.4352 18.9291 94.3122 19.9216 94.2309L19.1836 85.2207L18.4455 76.2105C15.4184 76.4584 11.3603 77.0911 7.81057 79.1036C3.66975 81.4512 0.239869 85.7618 0.239869 91.9111H9.28027ZM19.1836 85.2207L27.9695 83.0907C27.7885 82.3442 27.6625 81.3934 27.6625 80.1865H18.6221H9.58167C9.58167 82.6518 9.83933 85.0475 10.3977 87.3507L19.1836 85.2207ZM18.6221 80.1865L27.6625 80.1865C27.6625 61.6744 34.246 48.9656 44.1714 40.7168C54.336 32.2692 68.9626 27.724 86.124 27.724L86.124 18.6836L86.124 9.64319C66.0055 9.64323 46.8811 14.9549 32.6148 26.8114C18.1092 38.8667 9.58171 56.9094 9.58167 80.1865L18.6221 80.1865Z" fill="#480B38" mask="url(#path-1-outside-1_95_629)"/>
<path d="M13.8018 83.7744C11.0896 86.4865 7.29307 92.9354 13.8022 95.8283C20.3113 98.7212 44.3383 102.357 58.0997 104.266L80.0981 112.704C101.795 112.101 167.187 107.581 172.31 99.4444" stroke="white" stroke-width="3.01347"/>
<path opacity="0.6" d="M164.475 105.471L80.0977 97.3349L159.051 84.0757L169.899 91.308L176.83 102.156L164.475 105.471Z" fill="#F6A707"/>
<path opacity="0.5" d="M113.942 75.0953C132.006 63.2665 123.896 37.3801 117.584 25.9155L150.725 46.166L160.558 82.1669L140.528 94.0601C119.759 94.9661 86.8679 96.4616 70.0223 97.3963C67.0994 97.9539 64.1606 98.2388 61.1349 98.2388C56.5527 98.2388 60.9715 97.8985 70.0223 97.3963C82.9313 94.9337 95.5312 87.1515 113.942 75.0953Z" fill="#F6A707"/>
<path opacity="0.5" d="M55.2943 69.069C37.2306 57.2401 45.3399 31.3537 51.6524 19.8892L20.4307 42.4902L8.67815 76.1406L28.7087 88.0337C49.4771 88.9398 82.3684 90.4352 99.214 91.3699C102.137 91.9275 105.076 92.2124 108.101 92.2124C112.684 92.2124 108.265 91.8721 99.214 91.3699C86.305 88.9073 73.7052 81.1252 55.2943 69.069Z" fill="#F6A707"/>
<mask id="path-7-outside-2_95_629" maskUnits="userSpaceOnUse" x="-0.719727" y="8.68359" width="180" height="115" fill="black">
<rect fill="white" x="-0.719727" y="8.68359" width="180" height="115"/>
<path d="M86.124 18.6836C123.404 18.6836 153.626 38.3972 153.626 80.1865C153.626 82.5546 153.441 84.6806 153.086 86.5879C154.251 86.8197 154.958 87.0846 155.133 87.3906C157.544 91.6094 170.501 94.0207 169.597 99.1436C168.692 104.266 148.502 107.279 138.257 109.389C128.011 111.498 85.8225 114.211 83.1104 113.909C76.4808 113.173 72.2618 110.895 68.043 109.389C63.824 107.882 55.6875 104.267 53.5781 104.267C49.0577 104.266 37.3057 101.855 28.2656 100.047C19.2253 98.2388 9.28048 96.7326 9.28027 91.9111C9.28027 87.2212 13.95 85.6494 19.1836 85.2207C18.8139 83.6958 18.6221 82.0226 18.6221 80.1865C18.6222 38.3973 48.844 18.6837 86.124 18.6836Z"/>
</mask>
<path d="M86.124 18.6836L86.124 9.64319L86.124 9.64319L86.124 18.6836ZM153.626 80.1865L162.666 80.1865L162.666 80.1865L153.626 80.1865ZM153.086 86.5879L144.198 84.9329L142.564 93.7115L151.321 95.4544L153.086 86.5879ZM155.133 87.3906L147.284 91.8759L147.284 91.8761L155.133 87.3906ZM169.597 99.1436L178.499 100.716L178.5 100.715L169.597 99.1436ZM138.257 109.389L140.08 118.243L140.08 118.243L138.257 109.389ZM83.1104 113.909L82.112 122.894L82.112 122.894L83.1104 113.909ZM68.043 109.389L65.0023 117.902L65.0024 117.902L68.043 109.389ZM53.5781 104.267L53.5778 113.307H53.5781V104.267ZM28.2656 100.047L26.4927 108.912L26.4927 108.912L28.2656 100.047ZM9.28027 91.9111L0.239869 91.9111L0.239869 91.9115L9.28027 91.9111ZM19.1836 85.2207L19.9216 94.2309L30.4609 93.3676L27.9695 83.0907L19.1836 85.2207ZM18.6221 80.1865L9.58167 80.1865V80.1865H18.6221ZM86.124 18.6836V27.724C103.286 27.724 117.912 32.2692 128.077 40.7168C138.002 48.9656 144.586 61.6744 144.586 80.1865L153.626 80.1865L162.666 80.1865C162.666 56.9094 154.139 38.8667 139.633 26.8113C125.367 14.9548 106.243 9.64319 86.124 9.64319V18.6836ZM153.626 80.1865H144.586C144.586 82.0905 144.436 83.6543 144.198 84.9329L153.086 86.5879L161.974 88.2428C162.446 85.707 162.666 83.0187 162.666 80.1865H153.626ZM153.086 86.5879L151.321 95.4544C151.686 95.5269 151.573 95.5303 151.213 95.3906C151.03 95.3196 150.546 95.122 149.948 94.7301C149.418 94.3826 148.217 93.5089 147.284 91.8759L155.133 87.3906L162.982 82.9053C161.962 81.1193 160.607 80.0977 159.858 79.6073C159.042 79.0724 158.276 78.7367 157.748 78.5322C156.699 78.1257 155.651 77.8807 154.85 77.7214L153.086 86.5879ZM155.133 87.3906L147.284 91.8761C149.182 95.1988 152.374 97.1559 153.977 98.0926C155.777 99.1442 158.179 100.299 159.459 100.96C160.236 101.361 160.84 101.693 161.319 101.988C161.551 102.131 161.724 102.246 161.847 102.335C161.972 102.424 162.018 102.467 162.011 102.46C162.004 102.454 161.907 102.366 161.764 102.19C161.621 102.012 161.403 101.707 161.192 101.271C160.719 100.29 160.447 98.9712 160.694 97.5725L169.597 99.1436L178.5 100.715C179.52 94.9344 176.213 90.916 174.104 89.0185C172.021 87.1452 169.458 85.7746 167.757 84.8959C165.609 83.7865 164.376 83.2274 163.097 82.4803C161.621 81.6183 162.289 81.6919 162.982 82.9052L155.133 87.3906ZM169.597 99.1436L160.694 97.5712C161.077 95.4023 162.291 94.3101 162.455 94.1667C162.666 93.9821 162.581 94.1101 161.879 94.4433C160.493 95.1017 158.234 95.8542 155.177 96.6409C149.003 98.2294 142.067 99.3743 136.434 100.534L138.257 109.389L140.08 118.243C144.693 117.294 152.974 115.877 159.682 114.151C163.066 113.281 166.664 112.188 169.639 110.774C171.117 110.072 172.838 109.107 174.366 107.769C175.847 106.472 177.89 104.166 178.499 100.716L169.597 99.1436ZM138.257 109.389L136.434 100.534C132.011 101.445 119.57 102.617 107.188 103.537C101.155 103.986 95.3675 104.358 90.9388 104.6C88.7197 104.72 86.8755 104.806 85.5266 104.853C83.7918 104.913 83.6335 104.871 84.1087 104.924L83.1104 113.909L82.112 122.894C83.2652 123.022 85.0186 122.962 86.1501 122.923C87.6676 122.871 89.6443 122.778 91.9219 122.654C96.4865 122.405 102.395 122.024 108.528 121.569C120.481 120.68 134.257 119.442 140.08 118.243L138.257 109.389ZM83.1104 113.909L84.1087 104.924C78.8765 104.343 76.5336 102.821 71.0836 100.875L68.043 109.389L65.0024 117.902C67.99 118.969 74.0852 122.002 82.112 122.894L83.1104 113.909ZM68.043 109.389L71.0836 100.875C69.0882 100.162 66.4765 99.0664 63.2792 97.8303C61.8264 97.2687 60.2852 96.6941 58.9065 96.25C57.969 95.948 55.7443 95.2262 53.5781 95.2262V104.267V113.307C52.7806 113.307 52.3257 113.169 52.5614 113.225C52.6704 113.251 52.9262 113.319 53.3632 113.46C54.2352 113.741 55.3873 114.164 56.7597 114.695C59.2128 115.643 62.7788 117.108 65.0023 117.902L68.043 109.389ZM53.5781 104.267L53.5784 95.2262C52.2643 95.2262 49.007 94.794 44.2089 93.9356C39.6903 93.1272 34.6072 92.0958 30.0386 91.182L28.2656 100.047L26.4927 108.912C30.9642 109.806 36.2771 110.884 41.0246 111.734C45.4926 112.533 50.3714 113.307 53.5778 113.307L53.5781 104.267ZM28.2656 100.047L30.0386 91.182C25.076 90.1895 21.1617 89.5057 18.2414 88.5324C16.7927 88.0496 16.4311 87.751 16.5769 87.8661C16.9057 88.1256 18.3206 89.4983 18.3207 91.9107L9.28027 91.9111L0.239869 91.9115C0.240078 96.7347 2.89816 100.104 5.37416 102.058C7.66723 103.868 10.3569 104.963 12.5245 105.686C16.8366 107.123 22.4149 108.096 26.4927 108.912L28.2656 100.047ZM9.28027 91.9111H18.3207C18.3207 92.3193 18.1938 93.0571 17.711 93.8132C17.267 94.5085 16.7927 94.7957 16.7281 94.8323C16.6911 94.8533 16.9094 94.7287 17.5325 94.5795C18.1353 94.4352 18.9291 94.3122 19.9216 94.2309L19.1836 85.2207L18.4455 76.2105C15.4184 76.4584 11.3603 77.0911 7.81057 79.1036C3.66975 81.4512 0.239869 85.7618 0.239869 91.9111H9.28027ZM19.1836 85.2207L27.9695 83.0907C27.7885 82.3442 27.6625 81.3934 27.6625 80.1865H18.6221H9.58167C9.58167 82.6518 9.83933 85.0475 10.3977 87.3507L19.1836 85.2207ZM18.6221 80.1865L27.6625 80.1865C27.6625 61.6744 34.246 48.9656 44.1714 40.7168C54.336 32.2692 68.9626 27.724 86.124 27.724L86.124 18.6836L86.124 9.64319C66.0055 9.64323 46.8811 14.9549 32.6148 26.8114C18.1092 38.8667 9.58171 56.9094 9.58167 80.1865L18.6221 80.1865Z" fill="#480B38" mask="url(#path-7-outside-2_95_629)"/>
<mask id="path-9-inside-3_95_629" fill="white">
<path d="M82.6064 0C110.899 0.000130957 133.836 23.476 133.836 52.4346C133.836 57.2333 133.205 61.8813 132.025 66.2969H110.313C104.725 42.1087 83.4742 24.1085 58.1104 24.1084C50.6175 24.1084 43.4832 25.6794 37.0059 28.5166C45.5001 11.5849 62.7316 0.000188091 82.6064 0Z"/>
</mask>
<path d="M82.6064 0C110.899 0.000130957 133.836 23.476 133.836 52.4346C133.836 57.2333 133.205 61.8813 132.025 66.2969H110.313C104.725 42.1087 83.4742 24.1085 58.1104 24.1084C50.6175 24.1084 43.4832 25.6794 37.0059 28.5166C45.5001 11.5849 62.7316 0.000188091 82.6064 0Z" fill="#FDCE4A"/>
<path d="M82.6064 0L82.6065 -9.0404L82.6064 -9.0404L82.6064 0ZM133.836 52.4346L142.876 52.4346L142.876 52.4346L133.836 52.4346ZM132.025 66.2969V75.3373H138.968L140.759 68.6304L132.025 66.2969ZM110.313 66.2969L101.505 68.3319L103.124 75.3373H110.313V66.2969ZM58.1104 24.1084L58.1104 15.068L58.1103 15.068L58.1104 24.1084ZM37.0059 28.5166L28.9253 24.4628L17.6973 46.8437L40.633 36.7975L37.0059 28.5166ZM82.6064 0L82.6064 9.0404C105.709 9.04051 124.795 28.2696 124.796 52.4346L133.836 52.4346L142.876 52.4346C142.876 18.6824 116.089 -9.04025 82.6065 -9.0404L82.6064 0ZM133.836 52.4346L124.796 52.4345C124.796 56.4382 124.27 60.3019 123.291 63.9633L132.025 66.2969L140.759 68.6304C142.141 63.4606 142.876 58.0284 142.876 52.4346L133.836 52.4346ZM132.025 66.2969V57.2565H110.313V66.2969V75.3373H132.025V66.2969ZM110.313 66.2969L119.122 64.2619C112.637 36.1937 87.9056 15.0681 58.1104 15.068L58.1104 24.1084L58.1103 33.1488C79.0427 33.1489 96.8133 48.0237 101.505 68.3319L110.313 66.2969ZM58.1104 24.1084L58.1103 15.068C49.3416 15.068 40.9744 16.9087 33.3787 20.2357L37.0059 28.5166L40.633 36.7975C45.9921 34.4501 51.8933 33.1488 58.1104 33.1488L58.1104 24.1084ZM37.0059 28.5166L45.0864 32.5704C52.1445 18.5013 66.3634 9.04056 82.6065 9.0404L82.6064 0L82.6064 -9.0404C59.0997 -9.04018 38.8557 4.66838 28.9253 24.4628L37.0059 28.5166Z" fill="#480B38" mask="url(#path-9-inside-3_95_629)"/>
<path d="M87.1982 7.49439C109.429 10.1714 125.606 29.4607 124.806 51.4405C121.25 29.6664 103.693 11.9446 80.6899 9.17464C76.9252 8.72131 73.207 8.69161 69.5833 9.04805C75.1156 7.35266 81.0835 6.75815 87.1982 7.49439Z" fill="#F2F0EC"/>
<path d="M75.4178 13.8162C100.825 16.8757 119.242 39.5318 118.228 65.4266C114.26 39.7917 94.2614 18.988 67.9712 15.8221C63.6699 15.3042 59.4198 15.2848 55.2762 15.7197C61.6073 13.7002 68.4314 12.9749 75.4178 13.8162Z" fill="#ECA609"/>
<mask id="path-13-inside-4_95_629" fill="white">
<path d="M82.6064 0C110.899 0.000130957 133.836 23.476 133.836 52.4346C133.836 57.2333 133.205 61.8813 132.025 66.2969H110.313C104.725 42.1087 83.4742 24.1085 58.1104 24.1084C50.6175 24.1084 43.4832 25.6794 37.0059 28.5166C45.5001 11.5849 62.7316 0.000188091 82.6064 0Z"/>
</mask>
<path d="M82.6064 0L82.6065 -9.0404L82.6064 -9.0404L82.6064 0ZM133.836 52.4346L142.876 52.4346L142.876 52.4346L133.836 52.4346ZM132.025 66.2969V75.3373H138.968L140.759 68.6304L132.025 66.2969ZM110.313 66.2969L101.505 68.3319L103.124 75.3373H110.313V66.2969ZM58.1104 24.1084L58.1104 15.068L58.1103 15.068L58.1104 24.1084ZM37.0059 28.5166L28.9253 24.4628L17.6973 46.8437L40.633 36.7975L37.0059 28.5166ZM82.6064 0L82.6064 9.0404C105.709 9.04051 124.795 28.2696 124.796 52.4346L133.836 52.4346L142.876 52.4346C142.876 18.6824 116.089 -9.04025 82.6065 -9.0404L82.6064 0ZM133.836 52.4346L124.796 52.4345C124.796 56.4382 124.27 60.3019 123.291 63.9633L132.025 66.2969L140.759 68.6304C142.141 63.4606 142.876 58.0284 142.876 52.4346L133.836 52.4346ZM132.025 66.2969V57.2565H110.313V66.2969V75.3373H132.025V66.2969ZM110.313 66.2969L119.122 64.2619C112.637 36.1937 87.9056 15.0681 58.1104 15.068L58.1104 24.1084L58.1103 33.1488C79.0427 33.1489 96.8133 48.0237 101.505 68.3319L110.313 66.2969ZM58.1104 24.1084L58.1103 15.068C49.3416 15.068 40.9744 16.9087 33.3787 20.2357L37.0059 28.5166L40.633 36.7975C45.9921 34.4501 51.8933 33.1488 58.1104 33.1488L58.1104 24.1084ZM37.0059 28.5166L45.0864 32.5704C52.1445 18.5013 66.3634 9.04056 82.6065 9.0404L82.6064 0L82.6064 -9.0404C59.0997 -9.04018 38.8557 4.66838 28.9253 24.4628L37.0059 28.5166Z" fill="#480B38" mask="url(#path-13-inside-4_95_629)"/>
<path d="M16.5137 81.3643C41.5255 91.1078 104.386 105.11 155.736 83.1723" stroke="#480B38" stroke-width="9.0404"/>
<path d="M63.5248 75.3374L60.21 88.2953" stroke="#ECA609" stroke-width="3.01347"/>
<path d="M90.3438 90.1036C90.7455 86.1861 95.1653 80.7619 104.808 81.3646" stroke="#F2F0EC" stroke-width="3.01347"/>
<path d="M135.244 84.9799C135.646 81.0624 136.028 78.2297 142.778 77.7476" stroke="#F2F0EC" stroke-width="3.01347"/>
<path d="M57.9785 33.1484C78.6563 33.1485 95.6145 49.061 97.2822 69.3086C91.2766 50.3164 73.5163 36.5489 52.5381 36.5488C47.0938 36.5488 41.8668 37.4784 37.0049 39.1836C43.0803 35.3613 50.2707 33.1484 57.9785 33.1484Z" fill="#F2F0EC"/>
<path d="M33.6904 82.2686L37.0052 72.3241L40.0187 70.8174L65.0305 75.9403" stroke="white" stroke-width="3.01347"/>
<path d="M32.1614 71.677L28.5674 83.9754L64.1484 92.8149L67.7425 79.3635L65.586 71.677L38.2713 66.2964L32.1614 71.677Z" stroke="#480B38" stroke-width="7.23232"/>
<path d="M87.2141 93.8435C85.8476 89.2687 86.6381 78.0484 99.0826 78.0487C110.125 78.049 112.166 87.636 110.835 91.6093" stroke="#480B38" stroke-width="7.23232"/>
<path d="M134.257 89.6619C132.336 85.4222 130.57 76.6151 138.872 75.3041C147.173 73.993 149.326 82.0782 149.365 86.2848" stroke="#480B38" stroke-width="7.23232"/>
<circle cx="40.0183" cy="53.0374" r="3.01347" fill="#F2F0EC"/>
</svg>
