<svg width="186" height="149" viewBox="0 0 186 149" fill="none" xmlns="http://www.w3.org/2000/svg">
<path d="M143.915 20.2265C143.537 14.803 102.441 16.0984 81.1494 18.0801C50.105 20.9695 23.9625 26.4239 24.4411 33.2937C24.6678 36.5478 33.9123 70.8029 34.3657 77.3111C34.7284 82.5177 33.3274 90.2208 32.5815 93.4216C24.9886 93.9505 5.99482 97.7154 6.75048 108.562C7.83804 124.174 50.2477 135.717 82.3058 139.631C117.293 141.19 134.099 140.725 141.985 139.187C155.503 136.551 183.557 125.755 182.147 105.507C180.736 85.2594 151.82 82.1874 148.927 82.3889C146.035 82.5904 144.293 25.65 143.915 20.2265Z" fill="#242523"/>
<path d="M143.915 20.2265C143.537 14.803 102.441 16.0984 81.1494 18.0801C50.105 20.9695 23.9625 26.4239 24.4411 33.2937C24.6678 36.5478 33.9123 70.8029 34.3657 77.3111C34.7284 82.5177 33.3274 90.2208 32.5815 93.4216C24.9886 93.9505 5.99482 97.7154 6.75048 108.562C7.83804 124.174 50.2477 135.717 82.3058 139.631C117.293 141.19 134.099 140.725 141.985 139.187C155.503 136.551 183.557 125.755 182.147 105.507C180.736 85.2594 151.82 82.1874 148.927 82.3889C146.035 82.5904 144.293 25.65 143.915 20.2265Z" stroke="black" stroke-width="5.79909"/>
<path d="M143.915 20.2265C143.537 14.803 102.441 16.0984 81.1494 18.0801C50.105 20.9695 23.9625 26.4239 24.4411 33.2937C24.6678 36.5478 33.9123 70.8029 34.3657 77.3111C34.7284 82.5177 33.3274 90.2208 32.5815 93.4216C24.9886 93.9505 5.99482 97.7154 6.75048 108.562C7.83804 124.174 50.2477 135.717 82.3058 139.631C117.293 141.19 134.099 140.725 141.985 139.187C155.503 136.551 183.557 125.755 182.147 105.507C180.736 85.2594 151.82 82.1874 148.927 82.3889C146.035 82.5904 144.293 25.65 143.915 20.2265Z" stroke="black" stroke-opacity="0.2" stroke-width="5.79909"/>
<path opacity="0.2" d="M119.462 60.5165C118.521 55.3502 117.293 41.7914 116.109 30.0054C112.975 30.2237 106.676 31.2439 106.548 33.5781C106.388 36.4958 110.238 63.7023 110.641 69.4874C110.963 74.1154 115.1 98.7269 117.128 110.454L127.505 107.74C125.393 94.8078 120.403 65.6827 119.462 60.5165Z" fill="#D9D9D9"/>
<path opacity="0.23" d="M149.671 97.8732L148.21 76.9023C137.315 80.4468 105.58 90.9234 91.7358 92.4692C77.892 94.0149 49.4775 94.3232 35.8278 93.0941L32.2447 104.243L68.139 118.819C70.2634 119.761 76.0982 121.462 82.4416 120.729C90.3709 119.813 119.767 114.132 129.017 111.308C136.417 109.049 148.031 100.41 149.671 97.8732Z" fill="#898B86"/>
<path d="M8.59261 103.711C24.8883 102.939 49.4111 108.134 65.8697 117.523C84.0309 127.884 114.183 133.05 135.751 129.731C157.319 126.412 191.7 92.4177 147.87 83.8862" stroke="black" stroke-width="5.79909"/>
<path d="M126.314 26.2363C120.067 30.4259 102.075 39.188 80.0916 40.7194C52.6125 42.6338 25.984 40.0734 24.9083 35.0619" stroke="black" stroke-width="5.79909"/>
<path d="M34.5919 90.9999C47.2156 93.1481 77.9743 94.1541 97.9328 92.7637C117.891 91.3733 140.925 79.7019 146.69 75.5459" stroke="black" stroke-width="5.79909"/>
<path d="M31.4141 92.3115L32.4468 107.136" stroke="black" stroke-width="5.79909"/>
<path d="M71.8804 120.375C96.2565 120.856 151.547 109.506 150.615 96.1283C150.212 90.3433 148.868 76.2674 145.563 75.7709" stroke="black" stroke-width="5.79909"/>
<path opacity="0.5" d="M61.3286 114.933L54.8832 54.0539L54.7241 41.4972L26.0441 37.6727L32.2747 57.7361C33.2072 65.9064 34.951 83.6361 34.4661 89.1924C33.9812 94.7486 31.9365 103.296 30.9748 106.875L61.3286 114.933Z" fill="black" stroke="black" stroke-width="0.724886"/>
<path opacity="0.5" d="M56.5102 123.989C63.657 127.488 72.4768 134.14 80.0104 137.975L66.1449 137.124L28.4591 128.123C15.701 124.046 4.23525 114.181 11.0803 113.348C31.9756 110.802 49.3633 120.49 56.5102 123.989Z" fill="black" stroke="black" stroke-width="0.724886"/>
</svg>
